<svg width="44" height="16" viewBox="0 0 44 16" fill="none" xmlns="http://www.w3.org/2000/svg">
<path opacity="0.1" d="M8.70581 1.3335C5.50581 1.3335 2.70581 2.7335 0.705811 4.9335L8.70581 14.6668L16.7058 4.9335C14.7058 2.7335 11.9058 1.3335 8.70581 1.3335Z" fill="#1D1B20"/>
<path d="M30.4311 1.3335L17.0978 14.6668H30.4311V1.3335Z" fill="#1D1B20"/>
<path opacity="0.3" d="M41.6469 0.941406H38.8234V2.35317H37.4116C36.8918 2.35317 36.4705 2.82722 36.4705 3.41199V14.0002C36.4705 14.585 36.8918 15.0591 37.4116 15.0591H43.0587C43.5785 15.0591 43.9999 14.585 43.9999 14.0002V3.41199C43.9999 2.82722 43.5785 2.35317 43.0587 2.35317H41.6469V0.941406Z" fill="#1D1B20"/>
<path d="M36.4705 8.4707C36.4705 9.01972 36.4705 13.5217 36.4705 14.0707C36.4705 14.6165 36.8918 15.0589 37.4116 15.0589H43.0587C43.5785 15.0589 43.9999 14.6165 43.9999 14.0707C43.9999 13.5217 43.9999 9.01972 43.9999 8.4707H36.4705Z" fill="#1D1B20"/>
</svg>
